<mxfile>
    <diagram id="C5RBs43oDa-KdzZeNtuy" name="Page-1">
        <mxGraphModel dx="416" dy="408" grid="1" gridSize="10" guides="1" tooltips="1" connect="1" arrows="1" fold="1" page="1" pageScale="1" pageWidth="1169" pageHeight="827" math="0" shadow="0">
            <root>
                <mxCell id="WIyWlLk6GJQsqaUBKTNV-0"/>
                <mxCell id="WIyWlLk6GJQsqaUBKTNV-1" parent="WIyWlLk6GJQsqaUBKTNV-0"/>
                <mxCell id="zkfFHV4jXpPFQw0GAbJ--0" value="&lt;abstract&gt; Shape" style="swimlane;fontStyle=2;align=center;verticalAlign=top;childLayout=stackLayout;horizontal=1;startSize=26;horizontalStack=0;resizeParent=1;resizeLast=0;collapsible=1;marginBottom=0;rounded=0;shadow=0;strokeWidth=1;fontSize=10;" parent="WIyWlLk6GJQsqaUBKTNV-1" vertex="1">
                    <mxGeometry x="400" y="40" width="240" height="190" as="geometry">
                        <mxRectangle x="230" y="140" width="160" height="26" as="alternateBounds"/>
                    </mxGeometry>
                </mxCell>
                <mxCell id="BvGE6Ee7fU8jp91eKPD7-6" value="- relPositions: [Position] {ro}" style="text;align=left;verticalAlign=top;spacingLeft=4;spacingRight=4;overflow=hidden;rotatable=0;points=[[0,0.5],[1,0.5]];portConstraint=eastwest;fontSize=10;" parent="zkfFHV4jXpPFQw0GAbJ--0" vertex="1">
                    <mxGeometry y="26" width="240" height="20" as="geometry"/>
                </mxCell>
                <mxCell id="X8LODUkjvH6Go8XH6GLs-17" value="- relPositionsArray: [[Position]] {ro}" style="text;align=left;verticalAlign=top;spacingLeft=4;spacingRight=4;overflow=hidden;rotatable=0;points=[[0,0.5],[1,0.5]];portConstraint=eastwest;fontSize=10;" parent="zkfFHV4jXpPFQw0GAbJ--0" vertex="1">
                    <mxGeometry y="46" width="240" height="20" as="geometry"/>
                </mxCell>
                <mxCell id="zkfFHV4jXpPFQw0GAbJ--5" value="- color: Color {ro}" style="text;align=left;verticalAlign=top;spacingLeft=4;spacingRight=4;overflow=hidden;rotatable=0;points=[[0,0.5],[1,0.5]];portConstraint=eastwest;fontSize=10;" parent="zkfFHV4jXpPFQw0GAbJ--0" vertex="1">
                    <mxGeometry y="66" width="240" height="20" as="geometry"/>
                </mxCell>
                <mxCell id="zkfFHV4jXpPFQw0GAbJ--4" value="" style="line;html=1;strokeWidth=1;align=left;verticalAlign=middle;spacingTop=-1;spacingLeft=3;spacingRight=3;rotatable=0;labelPosition=right;points=[];portConstraint=eastwest;fontSize=10;" parent="zkfFHV4jXpPFQw0GAbJ--0" vertex="1">
                    <mxGeometry y="86" width="240" height="8" as="geometry"/>
                </mxCell>
                <mxCell id="X8LODUkjvH6Go8XH6GLs-16" value="+ rotate(Direction): [Position]" style="text;align=left;verticalAlign=top;spacingLeft=4;spacingRight=4;overflow=hidden;rotatable=0;points=[[0,0.5],[1,0.5]];portConstraint=eastwest;fontSize=10;whiteSpace=wrap;" parent="zkfFHV4jXpPFQw0GAbJ--0" vertex="1">
                    <mxGeometry y="94" width="240" height="26" as="geometry"/>
                </mxCell>
                <mxCell id="X8LODUkjvH6Go8XH6GLs-12" value="+ getAbsPositions(Position): [Position]" style="text;align=left;verticalAlign=top;spacingLeft=4;spacingRight=4;overflow=hidden;rotatable=0;points=[[0,0.5],[1,0.5]];portConstraint=eastwest;fontSize=10;" parent="zkfFHV4jXpPFQw0GAbJ--0" vertex="1">
                    <mxGeometry y="120" width="240" height="20" as="geometry"/>
                </mxCell>
                <mxCell id="X8LODUkjvH6Go8XH6GLs-26" value="+ reactToDissolvedRow(Position, row)" style="text;align=left;verticalAlign=top;spacingLeft=4;spacingRight=4;overflow=hidden;rotatable=0;points=[[0,0.5],[1,0.5]];portConstraint=eastwest;fontSize=10;" parent="zkfFHV4jXpPFQw0GAbJ--0" vertex="1">
                    <mxGeometry y="140" width="240" height="20" as="geometry"/>
                </mxCell>
                <mxCell id="X8LODUkjvH6Go8XH6GLs-66" value="+ moveGradually(Position)" style="text;align=left;verticalAlign=top;spacingLeft=4;spacingRight=4;overflow=hidden;rotatable=0;points=[[0,0.5],[1,0.5]];portConstraint=eastwest;fontSize=10;" parent="zkfFHV4jXpPFQw0GAbJ--0" vertex="1">
                    <mxGeometry y="160" width="240" height="20" as="geometry"/>
                </mxCell>
                <mxCell id="zkfFHV4jXpPFQw0GAbJ--6" value="ShapeO / ShapeL / etc." style="swimlane;fontStyle=0;align=center;verticalAlign=top;childLayout=stackLayout;horizontal=1;startSize=26;horizontalStack=0;resizeParent=1;resizeLast=0;collapsible=1;marginBottom=0;rounded=0;shadow=0;strokeWidth=1;fontSize=10;" parent="WIyWlLk6GJQsqaUBKTNV-1" vertex="1">
                    <mxGeometry x="120" y="40" width="240" height="80" as="geometry">
                        <mxRectangle x="130" y="380" width="160" height="26" as="alternateBounds"/>
                    </mxGeometry>
                </mxCell>
                <mxCell id="zkfFHV4jXpPFQw0GAbJ--7" value="- relPositionsArray: [[Position]] {ro]" style="text;align=left;verticalAlign=top;spacingLeft=4;spacingRight=4;overflow=hidden;rotatable=0;points=[[0,0.5],[1,0.5]];portConstraint=eastwest;fontSize=10;" parent="zkfFHV4jXpPFQw0GAbJ--6" vertex="1">
                    <mxGeometry y="26" width="240" height="24" as="geometry"/>
                </mxCell>
                <mxCell id="zkfFHV4jXpPFQw0GAbJ--8" value="- color: Color {ro}" style="text;align=left;verticalAlign=top;spacingLeft=4;spacingRight=4;overflow=hidden;rotatable=0;points=[[0,0.5],[1,0.5]];portConstraint=eastwest;rounded=0;shadow=0;html=0;fontSize=10;" parent="zkfFHV4jXpPFQw0GAbJ--6" vertex="1">
                    <mxGeometry y="50" width="240" height="20" as="geometry"/>
                </mxCell>
                <mxCell id="zkfFHV4jXpPFQw0GAbJ--9" value="" style="line;html=1;strokeWidth=1;align=left;verticalAlign=middle;spacingTop=-1;spacingLeft=3;spacingRight=3;rotatable=0;labelPosition=right;points=[];portConstraint=eastwest;fontSize=10;" parent="zkfFHV4jXpPFQw0GAbJ--6" vertex="1">
                    <mxGeometry y="70" width="240" height="8" as="geometry"/>
                </mxCell>
                <mxCell id="zkfFHV4jXpPFQw0GAbJ--12" value="" style="endArrow=block;endSize=10;endFill=0;shadow=0;strokeWidth=1;rounded=0;edgeStyle=elbowEdgeStyle;elbow=vertical;fontSize=10;" parent="WIyWlLk6GJQsqaUBKTNV-1" source="zkfFHV4jXpPFQw0GAbJ--6" target="zkfFHV4jXpPFQw0GAbJ--0" edge="1">
                    <mxGeometry width="160" relative="1" as="geometry">
                        <mxPoint x="520" y="203" as="sourcePoint"/>
                        <mxPoint x="520" y="203" as="targetPoint"/>
                    </mxGeometry>
                </mxCell>
                <mxCell id="BvGE6Ee7fU8jp91eKPD7-8" value="Direction (enum)" style="swimlane;fontStyle=2;align=center;verticalAlign=top;childLayout=stackLayout;horizontal=1;startSize=26;horizontalStack=0;resizeParent=1;resizeLast=0;collapsible=1;marginBottom=0;rounded=0;shadow=0;strokeWidth=1;fontSize=10;" parent="WIyWlLk6GJQsqaUBKTNV-1" vertex="1">
                    <mxGeometry x="960" y="40" width="160" height="52" as="geometry">
                        <mxRectangle x="230" y="140" width="160" height="26" as="alternateBounds"/>
                    </mxGeometry>
                </mxCell>
                <mxCell id="BvGE6Ee7fU8jp91eKPD7-9" value="left, right, down, up" style="text;align=left;verticalAlign=top;spacingLeft=4;spacingRight=4;overflow=hidden;rotatable=0;points=[[0,0.5],[1,0.5]];portConstraint=eastwest;fontSize=10;" parent="BvGE6Ee7fU8jp91eKPD7-8" vertex="1">
                    <mxGeometry y="26" width="160" height="26" as="geometry"/>
                </mxCell>
                <mxCell id="X8LODUkjvH6Go8XH6GLs-83" style="edgeStyle=orthogonalEdgeStyle;rounded=0;orthogonalLoop=1;jettySize=auto;html=1;entryX=0.5;entryY=0;entryDx=0;entryDy=0;startArrow=none;startFill=0;endArrow=classic;endFill=1;fontSize=10;" parent="WIyWlLk6GJQsqaUBKTNV-1" source="BvGE6Ee7fU8jp91eKPD7-17" target="X8LODUkjvH6Go8XH6GLs-29" edge="1">
                    <mxGeometry relative="1" as="geometry"/>
                </mxCell>
                <mxCell id="BvGE6Ee7fU8jp91eKPD7-17" value="Game" style="swimlane;fontStyle=0;align=center;verticalAlign=top;childLayout=stackLayout;horizontal=1;startSize=26;horizontalStack=0;resizeParent=1;resizeLast=0;collapsible=1;marginBottom=0;rounded=0;shadow=0;strokeWidth=1;fontSize=10;" parent="WIyWlLk6GJQsqaUBKTNV-1" vertex="1">
                    <mxGeometry x="680" y="40" width="240" height="390" as="geometry">
                        <mxRectangle x="550" y="140" width="160" height="26" as="alternateBounds"/>
                    </mxGeometry>
                </mxCell>
                <mxCell id="X8LODUkjvH6Go8XH6GLs-60" value="- shapeShop: ShapeShop" style="text;align=left;verticalAlign=top;spacingLeft=4;spacingRight=4;overflow=hidden;rotatable=0;points=[[0,0.5],[1,0.5]];portConstraint=eastwest;fontSize=10;" parent="BvGE6Ee7fU8jp91eKPD7-17" vertex="1">
                    <mxGeometry y="26" width="240" height="24" as="geometry"/>
                </mxCell>
                <mxCell id="BvGE6Ee7fU8jp91eKPD7-19" value="- activeShape: Shape? {ro}" style="text;align=left;verticalAlign=top;spacingLeft=4;spacingRight=4;overflow=hidden;rotatable=0;points=[[0,0.5],[1,0.5]];portConstraint=eastwest;rounded=0;shadow=0;html=0;fontSize=10;" parent="BvGE6Ee7fU8jp91eKPD7-17" vertex="1">
                    <mxGeometry y="50" width="240" height="20" as="geometry"/>
                </mxCell>
                <mxCell id="HGt9CGZJZg_WIU4_0yQc-1" value="- activeShapePosition: PositionExact {ro}" style="text;align=left;verticalAlign=top;spacingLeft=4;spacingRight=4;overflow=hidden;rotatable=0;points=[[0,0.5],[1,0.5]];portConstraint=eastwest;rounded=0;shadow=0;html=0;fontSize=10;" parent="BvGE6Ee7fU8jp91eKPD7-17" vertex="1">
                    <mxGeometry y="70" width="240" height="20" as="geometry"/>
                </mxCell>
                <mxCell id="BvGE6Ee7fU8jp91eKPD7-18" value="- position2Shape: {Position, Shape} {ro}" style="text;align=left;verticalAlign=top;spacingLeft=4;spacingRight=4;overflow=hidden;rotatable=0;points=[[0,0.5],[1,0.5]];portConstraint=eastwest;fontSize=10;" parent="BvGE6Ee7fU8jp91eKPD7-17" vertex="1">
                    <mxGeometry y="90" width="240" height="24" as="geometry"/>
                </mxCell>
                <mxCell id="X8LODUkjvH6Go8XH6GLs-19" value="- shape2RefPosition: {ShapeExact, Position} {ro}" style="text;align=left;verticalAlign=top;spacingLeft=4;spacingRight=4;overflow=hidden;rotatable=0;points=[[0,0.5],[1,0.5]];portConstraint=eastwest;fontSize=10;" parent="BvGE6Ee7fU8jp91eKPD7-17" vertex="1">
                    <mxGeometry y="114" width="240" height="20" as="geometry"/>
                </mxCell>
                <mxCell id="X8LODUkjvH6Go8XH6GLs-20" value="- speed: double {ro}" style="text;align=left;verticalAlign=top;spacingLeft=4;spacingRight=4;overflow=hidden;rotatable=0;points=[[0,0.5],[1,0.5]];portConstraint=eastwest;rounded=0;shadow=0;html=0;fontSize=10;" parent="BvGE6Ee7fU8jp91eKPD7-17" vertex="1">
                    <mxGeometry y="134" width="240" height="20" as="geometry"/>
                </mxCell>
                <mxCell id="BvGE6Ee7fU8jp91eKPD7-21" value="- points: int {ro}" style="text;align=left;verticalAlign=top;spacingLeft=4;spacingRight=4;overflow=hidden;rotatable=0;points=[[0,0.5],[1,0.5]];portConstraint=eastwest;rounded=0;shadow=0;html=0;fontSize=10;" parent="BvGE6Ee7fU8jp91eKPD7-17" vertex="1">
                    <mxGeometry y="154" width="240" height="20" as="geometry"/>
                </mxCell>
                <mxCell id="X8LODUkjvH6Go8XH6GLs-63" value="- gameStatus: GameStatus" style="text;align=left;verticalAlign=top;spacingLeft=4;spacingRight=4;overflow=hidden;rotatable=0;points=[[0,0.5],[1,0.5]];portConstraint=eastwest;rounded=0;shadow=0;html=0;fontSize=10;" parent="BvGE6Ee7fU8jp91eKPD7-17" vertex="1">
                    <mxGeometry y="174" width="240" height="20" as="geometry"/>
                </mxCell>
                <mxCell id="BvGE6Ee7fU8jp91eKPD7-23" value="" style="line;html=1;strokeWidth=1;align=left;verticalAlign=middle;spacingTop=-1;spacingLeft=3;spacingRight=3;rotatable=0;labelPosition=right;points=[];portConstraint=eastwest;fontSize=10;" parent="BvGE6Ee7fU8jp91eKPD7-17" vertex="1">
                    <mxGeometry y="194" width="240" height="8" as="geometry"/>
                </mxCell>
                <mxCell id="X8LODUkjvH6Go8XH6GLs-55" value="+ copyWith(...): Game" style="text;align=left;verticalAlign=top;spacingLeft=4;spacingRight=4;overflow=hidden;rotatable=0;points=[[0,0.5],[1,0.5]];portConstraint=eastwest;rounded=0;shadow=0;html=0;fontSize=10;whiteSpace=wrap;" parent="BvGE6Ee7fU8jp91eKPD7-17" vertex="1">
                    <mxGeometry y="202" width="240" height="20" as="geometry"/>
                </mxCell>
                <mxCell id="X8LODUkjvH6Go8XH6GLs-14" value="- shapeFromPosition(Position): Shape" style="text;align=left;verticalAlign=top;spacingLeft=4;spacingRight=4;overflow=hidden;rotatable=0;points=[[0,0.5],[1,0.5]];portConstraint=eastwest;rounded=0;shadow=0;html=0;fontSize=10;whiteSpace=wrap;" parent="BvGE6Ee7fU8jp91eKPD7-17" vertex="1">
                    <mxGeometry y="222" width="240" height="20" as="geometry"/>
                </mxCell>
                <mxCell id="X8LODUkjvH6Go8XH6GLs-25" value="- clearableLines(): [int]" style="text;align=left;verticalAlign=top;spacingLeft=4;spacingRight=4;overflow=hidden;rotatable=0;points=[[0,0.5],[1,0.5]];portConstraint=eastwest;rounded=0;shadow=0;html=0;fontSize=10;whiteSpace=wrap;" parent="BvGE6Ee7fU8jp91eKPD7-17" vertex="1">
                    <mxGeometry y="242" width="240" height="20" as="geometry"/>
                </mxCell>
                <mxCell id="HGt9CGZJZg_WIU4_0yQc-2" value="- isThisPositionFree(Position): bool" style="text;align=left;verticalAlign=top;spacingLeft=4;spacingRight=4;overflow=hidden;rotatable=0;points=[[0,0.5],[1,0.5]];portConstraint=eastwest;rounded=0;shadow=0;html=0;fontSize=10;whiteSpace=wrap;" parent="BvGE6Ee7fU8jp91eKPD7-17" vertex="1">
                    <mxGeometry y="262" width="240" height="20" as="geometry"/>
                </mxCell>
                <mxCell id="X8LODUkjvH6Go8XH6GLs-27" value="- updateShapePosition(Shape, Position)" style="text;align=left;verticalAlign=top;spacingLeft=4;spacingRight=4;overflow=hidden;rotatable=0;points=[[0,0.5],[1,0.5]];portConstraint=eastwest;rounded=0;shadow=0;html=0;fontSize=10;whiteSpace=wrap;" parent="BvGE6Ee7fU8jp91eKPD7-17" vertex="1">
                    <mxGeometry y="282" width="240" height="20" as="geometry"/>
                </mxCell>
                <mxCell id="X8LODUkjvH6Go8XH6GLs-61" value="- registerShape(Shape)" style="text;align=left;verticalAlign=top;spacingLeft=4;spacingRight=4;overflow=hidden;rotatable=0;points=[[0,0.5],[1,0.5]];portConstraint=eastwest;rounded=0;shadow=0;html=0;fontSize=10;whiteSpace=wrap;" parent="BvGE6Ee7fU8jp91eKPD7-17" vertex="1">
                    <mxGeometry y="302" width="240" height="20" as="geometry"/>
                </mxCell>
                <mxCell id="X8LODUkjvH6Go8XH6GLs-67" value="- updateActiveShapePosition(Shape, PositionExact)" style="text;align=left;verticalAlign=top;spacingLeft=4;spacingRight=4;overflow=hidden;rotatable=0;points=[[0,0.5],[1,0.5]];portConstraint=eastwest;rounded=0;shadow=0;html=0;fontSize=10;whiteSpace=wrap;" parent="BvGE6Ee7fU8jp91eKPD7-17" vertex="1">
                    <mxGeometry y="322" width="240" height="28" as="geometry"/>
                </mxCell>
                <mxCell id="HGt9CGZJZg_WIU4_0yQc-3" value="- activeShapePosition(): PositionExact" style="text;align=left;verticalAlign=top;spacingLeft=4;spacingRight=4;overflow=hidden;rotatable=0;points=[[0,0.5],[1,0.5]];portConstraint=eastwest;rounded=0;shadow=0;html=0;fontSize=10;whiteSpace=wrap;" parent="BvGE6Ee7fU8jp91eKPD7-17" vertex="1">
                    <mxGeometry y="350" width="240" height="20" as="geometry"/>
                </mxCell>
                <mxCell id="X8LODUkjvH6Go8XH6GLs-23" style="edgeStyle=orthogonalEdgeStyle;rounded=0;orthogonalLoop=1;jettySize=auto;html=1;exitX=1;exitY=0.5;exitDx=0;exitDy=0;entryX=0;entryY=0.5;entryDx=0;entryDy=0;fontSize=10;startArrow=classic;startFill=1;endArrow=none;endFill=0;fillColor=#f5f5f5;" parent="WIyWlLk6GJQsqaUBKTNV-1" source="BvGE6Ee7fU8jp91eKPD7-6" target="X8LODUkjvH6Go8XH6GLs-19" edge="1">
                    <mxGeometry relative="1" as="geometry"/>
                </mxCell>
                <mxCell id="X8LODUkjvH6Go8XH6GLs-29" value="ShapeShop" style="swimlane;fontStyle=0;align=center;verticalAlign=top;childLayout=stackLayout;horizontal=1;startSize=26;horizontalStack=0;resizeParent=1;resizeLast=0;collapsible=1;marginBottom=0;rounded=0;shadow=0;strokeWidth=1;fontSize=10;" parent="WIyWlLk6GJQsqaUBKTNV-1" vertex="1">
                    <mxGeometry x="680" y="520" width="240" height="130" as="geometry">
                        <mxRectangle x="230" y="140" width="160" height="26" as="alternateBounds"/>
                    </mxGeometry>
                </mxCell>
                <mxCell id="X8LODUkjvH6Go8XH6GLs-30" value="- bag: [[Shape] {ro}" style="text;align=left;verticalAlign=top;spacingLeft=4;spacingRight=4;overflow=hidden;rotatable=0;points=[[0,0.5],[1,0.5]];portConstraint=eastwest;fontSize=10;" parent="X8LODUkjvH6Go8XH6GLs-29" vertex="1">
                    <mxGeometry y="26" width="240" height="24" as="geometry"/>
                </mxCell>
                <mxCell id="X8LODUkjvH6Go8XH6GLs-31" value="- nextBag: [Shape] {ro}" style="text;align=left;verticalAlign=top;spacingLeft=4;spacingRight=4;overflow=hidden;rotatable=0;points=[[0,0.5],[1,0.5]];portConstraint=eastwest;fontSize=10;" parent="X8LODUkjvH6Go8XH6GLs-29" vertex="1">
                    <mxGeometry y="50" width="240" height="20" as="geometry"/>
                </mxCell>
                <mxCell id="X8LODUkjvH6Go8XH6GLs-34" value="" style="line;html=1;strokeWidth=1;align=left;verticalAlign=middle;spacingTop=-1;spacingLeft=3;spacingRight=3;rotatable=0;labelPosition=right;points=[];portConstraint=eastwest;fontSize=10;" parent="X8LODUkjvH6Go8XH6GLs-29" vertex="1">
                    <mxGeometry y="70" width="240" height="8" as="geometry"/>
                </mxCell>
                <mxCell id="X8LODUkjvH6Go8XH6GLs-35" value="+ handOutShape(int): Shape" style="text;align=left;verticalAlign=top;spacingLeft=4;spacingRight=4;overflow=hidden;rotatable=0;points=[[0,0.5],[1,0.5]];portConstraint=eastwest;fontSize=10;whiteSpace=wrap;" parent="X8LODUkjvH6Go8XH6GLs-29" vertex="1">
                    <mxGeometry y="78" width="240" height="22" as="geometry"/>
                </mxCell>
                <mxCell id="X8LODUkjvH6Go8XH6GLs-57" value="+ showShape(): Shape" style="text;align=left;verticalAlign=top;spacingLeft=4;spacingRight=4;overflow=hidden;rotatable=0;points=[[0,0.5],[1,0.5]];portConstraint=eastwest;fontSize=10;whiteSpace=wrap;" parent="X8LODUkjvH6Go8XH6GLs-29" vertex="1">
                    <mxGeometry y="100" width="240" height="22" as="geometry"/>
                </mxCell>
                <mxCell id="X8LODUkjvH6Go8XH6GLs-39" value="GameProvider" style="swimlane;fontStyle=0;align=center;verticalAlign=top;childLayout=stackLayout;horizontal=1;startSize=26;horizontalStack=0;resizeParent=1;resizeLast=0;collapsible=1;marginBottom=0;rounded=0;shadow=0;strokeWidth=1;fontSize=10;" parent="WIyWlLk6GJQsqaUBKTNV-1" vertex="1">
                    <mxGeometry x="960" y="480" width="160" height="250" as="geometry">
                        <mxRectangle x="550" y="140" width="160" height="26" as="alternateBounds"/>
                    </mxGeometry>
                </mxCell>
                <mxCell id="X8LODUkjvH6Go8XH6GLs-47" value="" style="line;html=1;strokeWidth=1;align=left;verticalAlign=middle;spacingTop=-1;spacingLeft=3;spacingRight=3;rotatable=0;labelPosition=right;points=[];portConstraint=eastwest;fontSize=10;" parent="X8LODUkjvH6Go8XH6GLs-39" vertex="1">
                    <mxGeometry y="26" width="160" height="8" as="geometry"/>
                </mxCell>
                <mxCell id="X8LODUkjvH6Go8XH6GLs-48" value="- gameLoop()" style="text;align=left;verticalAlign=top;spacingLeft=4;spacingRight=4;overflow=hidden;rotatable=0;points=[[0,0.5],[1,0.5]];portConstraint=eastwest;rounded=0;shadow=0;html=0;fontSize=10;" parent="X8LODUkjvH6Go8XH6GLs-39" vertex="1">
                    <mxGeometry y="34" width="160" height="26" as="geometry"/>
                </mxCell>
                <mxCell id="X8LODUkjvH6Go8XH6GLs-50" value="- clearRows([int])" style="text;align=left;verticalAlign=top;spacingLeft=4;spacingRight=4;overflow=hidden;rotatable=0;points=[[0,0.5],[1,0.5]];portConstraint=eastwest;rounded=0;shadow=0;html=0;fontSize=10;whiteSpace=wrap;" parent="X8LODUkjvH6Go8XH6GLs-39" vertex="1">
                    <mxGeometry y="60" width="160" height="20" as="geometry"/>
                </mxCell>
                <mxCell id="X8LODUkjvH6Go8XH6GLs-85" value="+ createGame(int, int)" style="text;align=left;verticalAlign=top;spacingLeft=4;spacingRight=4;overflow=hidden;rotatable=0;points=[[0,0.5],[1,0.5]];portConstraint=eastwest;rounded=0;shadow=0;html=0;fontSize=10;whiteSpace=wrap;" parent="X8LODUkjvH6Go8XH6GLs-39" vertex="1">
                    <mxGeometry y="80" width="160" height="20" as="geometry"/>
                </mxCell>
                <mxCell id="X8LODUkjvH6Go8XH6GLs-90" value="- moveActiveShape(Shape, Direction)" style="text;align=left;verticalAlign=top;spacingLeft=4;spacingRight=4;overflow=hidden;rotatable=0;points=[[0,0.5],[1,0.5]];portConstraint=eastwest;rounded=0;shadow=0;html=0;fontSize=10;whiteSpace=wrap;" parent="X8LODUkjvH6Go8XH6GLs-39" vertex="1">
                    <mxGeometry y="100" width="160" height="30" as="geometry"/>
                </mxCell>
                <mxCell id="X8LODUkjvH6Go8XH6GLs-64" value="GameStatus (enum)" style="swimlane;fontStyle=2;align=center;verticalAlign=top;childLayout=stackLayout;horizontal=1;startSize=26;horizontalStack=0;resizeParent=1;resizeLast=0;collapsible=1;marginBottom=0;rounded=0;shadow=0;strokeWidth=1;fontSize=10;" parent="WIyWlLk6GJQsqaUBKTNV-1" vertex="1">
                    <mxGeometry x="960" y="120" width="160" height="52" as="geometry">
                        <mxRectangle x="230" y="140" width="160" height="26" as="alternateBounds"/>
                    </mxGeometry>
                </mxCell>
                <mxCell id="X8LODUkjvH6Go8XH6GLs-65" value="notStarted, running, lost, won, paused" style="text;align=left;verticalAlign=top;spacingLeft=4;spacingRight=4;overflow=hidden;rotatable=0;points=[[0,0.5],[1,0.5]];portConstraint=eastwest;fontSize=10;" parent="X8LODUkjvH6Go8XH6GLs-64" vertex="1">
                    <mxGeometry y="26" width="160" height="26" as="geometry"/>
                </mxCell>
                <mxCell id="X8LODUkjvH6Go8XH6GLs-68" value="Position" style="swimlane;fontStyle=2;align=center;verticalAlign=top;childLayout=stackLayout;horizontal=1;startSize=26;horizontalStack=0;resizeParent=1;resizeLast=0;collapsible=1;marginBottom=0;rounded=0;shadow=0;strokeWidth=1;fontSize=10;" parent="WIyWlLk6GJQsqaUBKTNV-1" vertex="1">
                    <mxGeometry x="960" y="190" width="160" height="140" as="geometry">
                        <mxRectangle x="230" y="140" width="160" height="26" as="alternateBounds"/>
                    </mxGeometry>
                </mxCell>
                <mxCell id="X8LODUkjvH6Go8XH6GLs-69" value="- x: int" style="text;align=left;verticalAlign=top;spacingLeft=4;spacingRight=4;overflow=hidden;rotatable=0;points=[[0,0.5],[1,0.5]];portConstraint=eastwest;fontSize=10;" parent="X8LODUkjvH6Go8XH6GLs-68" vertex="1">
                    <mxGeometry y="26" width="160" height="24" as="geometry"/>
                </mxCell>
                <mxCell id="X8LODUkjvH6Go8XH6GLs-70" value="- y: int" style="text;align=left;verticalAlign=top;spacingLeft=4;spacingRight=4;overflow=hidden;rotatable=0;points=[[0,0.5],[1,0.5]];portConstraint=eastwest;fontSize=10;" parent="X8LODUkjvH6Go8XH6GLs-68" vertex="1">
                    <mxGeometry y="50" width="160" height="20" as="geometry"/>
                </mxCell>
                <mxCell id="X8LODUkjvH6Go8XH6GLs-71" value="- yExact: double" style="text;align=left;verticalAlign=top;spacingLeft=4;spacingRight=4;overflow=hidden;rotatable=0;points=[[0,0.5],[1,0.5]];portConstraint=eastwest;fontSize=10;" parent="X8LODUkjvH6Go8XH6GLs-68" vertex="1">
                    <mxGeometry y="70" width="160" height="20" as="geometry"/>
                </mxCell>
                <mxCell id="X8LODUkjvH6Go8XH6GLs-74" value="" style="line;html=1;strokeWidth=1;align=left;verticalAlign=middle;spacingTop=-1;spacingLeft=3;spacingRight=3;rotatable=0;labelPosition=right;points=[];portConstraint=eastwest;fontSize=10;" parent="X8LODUkjvH6Go8XH6GLs-68" vertex="1">
                    <mxGeometry y="90" width="160" height="8" as="geometry"/>
                </mxCell>
                <mxCell id="X8LODUkjvH6Go8XH6GLs-81" value="" style="line;html=1;strokeWidth=1;align=left;verticalAlign=middle;spacingTop=-1;spacingLeft=3;spacingRight=3;rotatable=0;labelPosition=right;points=[];portConstraint=eastwest;fontSize=10;" parent="X8LODUkjvH6Go8XH6GLs-68" vertex="1">
                    <mxGeometry y="98" width="160" height="8" as="geometry"/>
                </mxCell>
                <mxCell id="X8LODUkjvH6Go8XH6GLs-75" value="Don't include yD in equality override" style="text;align=left;verticalAlign=top;spacingLeft=4;spacingRight=4;overflow=hidden;rotatable=0;points=[[0,0.5],[1,0.5]];portConstraint=eastwest;fontSize=10;whiteSpace=wrap;" parent="X8LODUkjvH6Go8XH6GLs-68" vertex="1">
                    <mxGeometry y="106" width="160" height="34" as="geometry"/>
                </mxCell>
                <mxCell id="X8LODUkjvH6Go8XH6GLs-84" style="edgeStyle=orthogonalEdgeStyle;rounded=0;orthogonalLoop=1;jettySize=auto;html=1;exitX=0;exitY=0.5;exitDx=0;exitDy=0;entryX=0.5;entryY=1;entryDx=0;entryDy=0;startArrow=none;startFill=0;endArrow=classic;endFill=1;fontSize=10;" parent="WIyWlLk6GJQsqaUBKTNV-1" source="X8LODUkjvH6Go8XH6GLs-31" target="zkfFHV4jXpPFQw0GAbJ--0" edge="1">
                    <mxGeometry relative="1" as="geometry"/>
                </mxCell>
                <mxCell id="X8LODUkjvH6Go8XH6GLs-86" value="Constants" style="swimlane;fontStyle=2;align=center;verticalAlign=top;childLayout=stackLayout;horizontal=1;startSize=26;horizontalStack=0;resizeParent=1;resizeLast=0;collapsible=1;marginBottom=0;rounded=0;shadow=0;strokeWidth=1;fontSize=10;" parent="WIyWlLk6GJQsqaUBKTNV-1" vertex="1">
                    <mxGeometry x="960" y="760" width="160" height="78" as="geometry">
                        <mxRectangle x="230" y="140" width="160" height="26" as="alternateBounds"/>
                    </mxGeometry>
                </mxCell>
                <mxCell id="X8LODUkjvH6Go8XH6GLs-87" value="numRows = 20 {static const}" style="text;align=left;verticalAlign=top;spacingLeft=4;spacingRight=4;overflow=hidden;rotatable=0;points=[[0,0.5],[1,0.5]];portConstraint=eastwest;fontSize=10;" parent="X8LODUkjvH6Go8XH6GLs-86" vertex="1">
                    <mxGeometry y="26" width="160" height="26" as="geometry"/>
                </mxCell>
                <mxCell id="X8LODUkjvH6Go8XH6GLs-88" value="numCols = 10 {static const}" style="text;align=left;verticalAlign=top;spacingLeft=4;spacingRight=4;overflow=hidden;rotatable=0;points=[[0,0.5],[1,0.5]];portConstraint=eastwest;fontSize=10;" parent="X8LODUkjvH6Go8XH6GLs-86" vertex="1">
                    <mxGeometry y="52" width="160" height="26" as="geometry"/>
                </mxCell>
                <mxCell id="X8LODUkjvH6Go8XH6GLs-91" style="edgeStyle=orthogonalEdgeStyle;rounded=0;orthogonalLoop=1;jettySize=auto;html=1;exitX=0;exitY=0.5;exitDx=0;exitDy=0;entryX=1;entryY=0.5;entryDx=0;entryDy=0;startArrow=none;startFill=0;endArrow=classic;endFill=1;strokeColor=#000000;fontSize=10;" parent="WIyWlLk6GJQsqaUBKTNV-1" source="X8LODUkjvH6Go8XH6GLs-50" target="X8LODUkjvH6Go8XH6GLs-19" edge="1">
                    <mxGeometry relative="1" as="geometry"/>
                </mxCell>
                <mxCell id="lwn8xe6NCGbbS0Cg0MNr-0" value="ShapeForm (enum)" style="swimlane;fontStyle=2;align=center;verticalAlign=top;childLayout=stackLayout;horizontal=1;startSize=26;horizontalStack=0;resizeParent=1;resizeLast=0;collapsible=1;marginBottom=0;rounded=0;shadow=0;strokeWidth=1;fontSize=10;" parent="WIyWlLk6GJQsqaUBKTNV-1" vertex="1">
                    <mxGeometry x="120" y="160" width="160" height="52" as="geometry">
                        <mxRectangle x="230" y="140" width="160" height="26" as="alternateBounds"/>
                    </mxGeometry>
                </mxCell>
                <mxCell id="lwn8xe6NCGbbS0Cg0MNr-1" value="o, t, s, z, i, l, j" style="text;align=left;verticalAlign=top;spacingLeft=4;spacingRight=4;overflow=hidden;rotatable=0;points=[[0,0.5],[1,0.5]];portConstraint=eastwest;fontSize=10;" parent="lwn8xe6NCGbbS0Cg0MNr-0" vertex="1">
                    <mxGeometry y="26" width="160" height="26" as="geometry"/>
                </mxCell>
                <mxCell id="HGt9CGZJZg_WIU4_0yQc-4" value="PositionExact" style="swimlane;fontStyle=2;align=center;verticalAlign=top;childLayout=stackLayout;horizontal=1;startSize=26;horizontalStack=0;resizeParent=1;resizeLast=0;collapsible=1;marginBottom=0;rounded=0;shadow=0;strokeWidth=1;fontSize=10;" parent="WIyWlLk6GJQsqaUBKTNV-1" vertex="1">
                    <mxGeometry x="960" y="370" width="160" height="70" as="geometry">
                        <mxRectangle x="230" y="140" width="160" height="26" as="alternateBounds"/>
                    </mxGeometry>
                </mxCell>
                <mxCell id="HGt9CGZJZg_WIU4_0yQc-7" value="- yExact: double" style="text;align=left;verticalAlign=top;spacingLeft=4;spacingRight=4;overflow=hidden;rotatable=0;points=[[0,0.5],[1,0.5]];portConstraint=eastwest;fontSize=10;" parent="HGt9CGZJZg_WIU4_0yQc-4" vertex="1">
                    <mxGeometry y="26" width="160" height="20" as="geometry"/>
                </mxCell>
                <mxCell id="HGt9CGZJZg_WIU4_0yQc-8" value="" style="line;html=1;strokeWidth=1;align=left;verticalAlign=middle;spacingTop=-1;spacingLeft=3;spacingRight=3;rotatable=0;labelPosition=right;points=[];portConstraint=eastwest;fontSize=10;" parent="HGt9CGZJZg_WIU4_0yQc-4" vertex="1">
                    <mxGeometry y="46" width="160" height="8" as="geometry"/>
                </mxCell>
                <mxCell id="HGt9CGZJZg_WIU4_0yQc-9" value="" style="line;html=1;strokeWidth=1;align=left;verticalAlign=middle;spacingTop=-1;spacingLeft=3;spacingRight=3;rotatable=0;labelPosition=right;points=[];portConstraint=eastwest;fontSize=10;" parent="HGt9CGZJZg_WIU4_0yQc-4" vertex="1">
                    <mxGeometry y="54" width="160" height="8" as="geometry"/>
                </mxCell>
                <mxCell id="HGt9CGZJZg_WIU4_0yQc-11" value="" style="endArrow=diamondThin;endFill=1;endSize=24;html=1;" parent="WIyWlLk6GJQsqaUBKTNV-1" target="HGt9CGZJZg_WIU4_0yQc-4" edge="1">
                    <mxGeometry width="160" relative="1" as="geometry">
                        <mxPoint x="1040" y="333" as="sourcePoint"/>
                        <mxPoint x="1220" y="450" as="targetPoint"/>
                    </mxGeometry>
                </mxCell>
            </root>
        </mxGraphModel>
    </diagram>
</mxfile>